<svg width="920" height="700" viewBox="0 0 920 700" fill="none" xmlns="http://www.w3.org/2000/svg">
  <rect width="920" height="700" rx="36" fill="#F7F9FE"/>
  <ellipse cx="472" cy="345" rx="392" ry="272" fill="#E9F0FF"/>
  <ellipse cx="646" cy="332" rx="236" ry="188" fill="#DFE8FF"/>
  <circle cx="290" cy="140" r="15" stroke="#FFFFFF" stroke-width="6"/>
  <circle cx="806" cy="272" r="8" stroke="#B8D0FF" stroke-width="4"/>
  <path d="M618 75V98" stroke="#A5C3FF" stroke-width="6" stroke-linecap="round"/>
  <path d="M606 87H630" stroke="#A5C3FF" stroke-width="6" stroke-linecap="round"/>
  <path d="M164 421V438" stroke="#FFFFFF" stroke-width="6" stroke-linecap="round"/>
  <path d="M156 429H172" stroke="#FFFFFF" stroke-width="6" stroke-linecap="round"/>

  <rect x="155" y="193" width="245" height="150" rx="12" fill="#192B55"/>
  <circle cx="177" cy="205" r="4" fill="#FF8A65"/>
  <circle cx="191" cy="205" r="4" fill="#FFD54F"/>
  <circle cx="205" cy="205" r="4" fill="#66BB6A"/>
  <circle cx="178" cy="236" r="3.5" fill="#9FB3D8"/>
  <circle cx="178" cy="257" r="3.5" fill="#9FB3D8"/>
  <circle cx="178" cy="278" r="3.5" fill="#9FB3D8"/>
  <circle cx="178" cy="299" r="3.5" fill="#9FB3D8"/>
  <path d="M194 236H247" stroke="#6A94FF" stroke-width="6" stroke-linecap="round"/>
  <path d="M194 251H228" stroke="#FFAA7A" stroke-width="6" stroke-linecap="round"/>
  <path d="M233 251H344" stroke="#2F9BFF" stroke-width="6" stroke-linecap="round"/>
  <path d="M210 266H268" stroke="#6A94FF" stroke-width="6" stroke-linecap="round"/>
  <path d="M273 266H336" stroke="#F2C94C" stroke-width="6" stroke-linecap="round"/>
  <path d="M194 281H246" stroke="#6A94FF" stroke-width="6" stroke-linecap="round"/>
  <path d="M251 281H316" stroke="#2F9BFF" stroke-width="6" stroke-linecap="round"/>
  <path d="M211 296H240" stroke="#FFAA7A" stroke-width="6" stroke-linecap="round"/>
  <path d="M246 296H298" stroke="#2F9BFF" stroke-width="6" stroke-linecap="round"/>
  <path d="M303 296H349" stroke="#4CAF50" stroke-width="6" stroke-linecap="round"/>
  <path d="M194 313H260" stroke="#8B6CFF" stroke-width="6" stroke-linecap="round"/>

  <rect x="722" y="103" width="70" height="70" rx="12" fill="#2B68F6"/>
  <path d="M744 126C739 131 739 145 744 150" stroke="#FFFFFF" stroke-width="5" stroke-linecap="round"/>
  <path d="M770 126C775 131 775 145 770 150" stroke="#FFFFFF" stroke-width="5" stroke-linecap="round"/>
  <path d="M757 121L753 155" stroke="#FFFFFF" stroke-width="5" stroke-linecap="round"/>

  <rect x="688" y="213" width="70" height="70" rx="12" fill="#2B68F6"/>
  <path d="M712 246L724 234" stroke="#FFFFFF" stroke-width="5" stroke-linecap="round" stroke-linejoin="round"/>
  <path d="M712 246L724 258" stroke="#FFFFFF" stroke-width="5" stroke-linecap="round" stroke-linejoin="round"/>
  <path d="M740 234L728 246" stroke="#FFFFFF" stroke-width="5" stroke-linecap="round" stroke-linejoin="round"/>
  <path d="M740 258L728 246" stroke="#FFFFFF" stroke-width="5" stroke-linecap="round" stroke-linejoin="round"/>

  <rect x="740" y="307" width="128" height="88" rx="14" fill="#FFFFFF" stroke="#D9E4FF" stroke-width="4"/>
  <rect x="756" y="321" width="82" height="10" rx="5" fill="#6A94FF"/>
  <rect x="756" y="341" width="62" height="8" rx="4" fill="#E3E9F7"/>
  <rect x="756" y="356" width="50" height="8" rx="4" fill="#E3E9F7"/>
  <rect x="756" y="371" width="44" height="8" rx="4" fill="#E3E9F7"/>
  <rect x="820" y="341" width="30" height="24" rx="4" fill="#E3E9F7"/>
  <rect x="820" y="370" width="30" height="9" rx="4" fill="#E3E9F7"/>

  <circle cx="505" cy="178" r="66" fill="#FFC89E"/>
  <path d="M467 175C480 160 501 160 514 175" stroke="#162B5C" stroke-width="7" stroke-linecap="round"/>
  <path d="M529 175C542 160 563 160 576 175" stroke="#162B5C" stroke-width="7" stroke-linecap="round"/>
  <circle cx="490" cy="204" r="6" fill="#162B5C"/>
  <circle cx="548" cy="204" r="6" fill="#162B5C"/>
  <path d="M520 204V223" stroke="#E38A65" stroke-width="5" stroke-linecap="round"/>
  <path d="M503 238C513 247 527 247 537 238" stroke="#E38A65" stroke-width="5" stroke-linecap="round" stroke-linejoin="round"/>

  <path d="M449 171C427 141 440 117 470 111C474 89 499 77 522 86C535 68 565 69 576 92C603 89 623 107 622 132C642 143 648 170 630 192C637 220 614 239 589 236C568 255 535 251 519 231C495 240 467 229 457 205C432 199 420 183 449 171Z" fill="#162B5C"/>
  <path d="M441 165C423 170 412 190 419 208C426 226 447 234 465 228C483 223 494 202 487 184C480 166 459 158 441 165Z" fill="#162B5C"/>
  <path d="M590 164C572 169 561 189 568 207C575 225 596 233 614 227C632 222 643 201 636 183C629 165 608 157 590 164Z" fill="#162B5C"/>
  <path d="M520 102C499 107 486 129 491 150C496 171 518 184 539 179C560 174 573 152 568 131C563 110 541 97 520 102Z" fill="#162B5C"/>

  <path d="M457 255C472 248 490 246 507 247L560 248C592 249 620 267 635 295L653 327L622 448L412 448L392 339C386 307 404 274 432 261L457 255Z" fill="#1748B3"/>
  <path d="M516 248L544 277L523 302L497 270L516 248Z" fill="#FFFFFF"/>
  <path d="M466 281C490 302 515 326 521 358" stroke="#13347E" stroke-width="4" stroke-linecap="round"/>
  <path d="M585 278C561 298 541 321 531 355" stroke="#13347E" stroke-width="4" stroke-linecap="round"/>
  <path d="M539 332L538 431" stroke="#13347E" stroke-width="5" stroke-linecap="round"/>
  <path d="M514 336L511 430" stroke="#13347E" stroke-width="5" stroke-linecap="round"/>
  <circle cx="512" cy="334" r="5" fill="#13347E"/>
  <circle cx="539" cy="330" r="5" fill="#13347E"/>
  <path d="M635 296C663 308 681 335 684 366L692 453H607L622 348L635 296Z" fill="#1748B3"/>
  <path d="M392 339C361 357 341 391 338 427L335 453H422L412 356L392 339Z" fill="#1748B3"/>

  <path d="M492 488C509 467 524 470 540 483L572 510L557 531L513 509L492 488Z" fill="#FFC89E"/>
  <path d="M615 454C602 474 586 492 572 510L540 483C551 465 566 448 585 438L615 454Z" fill="#1748B3"/>
  <path d="M505 495C526 490 542 496 555 509" stroke="#E38A65" stroke-width="4" stroke-linecap="round"/>

  <rect x="206" y="403" width="260" height="160" rx="16" fill="#687899"/>
  <rect x="227" y="425" width="220" height="12" rx="6" fill="#7F8EAE"/>
  <path d="M206 420C206 405 218 393 233 393H406C421 393 433 405 433 420V549C433 564 421 576 406 576H233C218 576 206 564 206 549V420Z" fill="#667493"/>
  <path d="M430 395H442C456 395 468 407 468 421V550C468 564 456 576 442 576H322L430 395Z" fill="#50607F"/>
  <path d="M322 468L341 451L360 468" stroke="#D6DCE8" stroke-width="8" stroke-linecap="round" stroke-linejoin="round"/>
  <path d="M379 451L360 468L379 485" stroke="#D6DCE8" stroke-width="8" stroke-linecap="round" stroke-linejoin="round"/>

  <rect x="48" y="550" width="826" height="36" rx="8" fill="#4D648F"/>
  <rect x="64" y="586" width="798" height="40" rx="4" fill="#445B8B"/>
  <ellipse cx="455" cy="628" rx="410" ry="8" fill="#D4DBEC"/>

  <rect x="752" y="492" width="50" height="64" rx="8" fill="#0F2E6C"/>
  <rect x="791" y="507" width="30" height="24" rx="12" fill="#163F93"/>
  <path d="M807 509V540" stroke="#0F2E6C" stroke-width="6" stroke-linecap="round"/>
  <ellipse cx="786" cy="560" rx="36" ry="8" fill="#D3D9E8"/>

  <rect x="81" y="497" width="42" height="55" rx="12" fill="#FFFFFF"/>
  <rect x="86" y="493" width="54" height="60" rx="14" fill="#FFFFFF"/>
  <path d="M110 505V410" stroke="#367A2E" stroke-width="5" stroke-linecap="round"/>
  <path d="M100 430C80 421 64 435 72 455C81 477 107 471 110 450" fill="#4A9B44"/>
  <path d="M126 398C109 404 103 426 112 441C121 456 142 457 151 443C160 429 153 408 136 401" fill="#4A9B44"/>
  <path d="M132 445C144 429 169 431 177 447C185 463 172 480 154 481C136 482 123 462 132 445Z" fill="#4A9B44"/>
  <path d="M82 467C68 458 49 464 46 480C44 496 58 509 74 506C90 503 97 480 82 467Z" fill="#4A9B44"/>
  <path d="M133 479C142 467 160 465 171 473C183 481 183 497 172 505C161 514 143 511 135 499C129 492 128 485 133 479Z" fill="#4A9B44"/>

  <circle cx="206" cy="514" r="10" stroke="#FFFFFF" stroke-width="6"/>
  <circle cx="650" cy="184" r="9" stroke="#FFFFFF" stroke-width="5"/>
  <circle cx="707" cy="134" r="7" stroke="#FFFFFF" stroke-width="5"/>
  <g opacity="0.9">
    <circle cx="756" cy="420" r="4" fill="#A5C3FF"/>
    <circle cx="770" cy="420" r="4" fill="#A5C3FF"/>
    <circle cx="784" cy="420" r="4" fill="#A5C3FF"/>
    <circle cx="798" cy="420" r="4" fill="#A5C3FF"/>
    <circle cx="756" cy="434" r="4" fill="#A5C3FF"/>
    <circle cx="770" cy="434" r="4" fill="#A5C3FF"/>
    <circle cx="784" cy="434" r="4" fill="#A5C3FF"/>
    <circle cx="798" cy="434" r="4" fill="#A5C3FF"/>
    <circle cx="756" cy="448" r="4" fill="#A5C3FF"/>
    <circle cx="770" cy="448" r="4" fill="#A5C3FF"/>
    <circle cx="784" cy="448" r="4" fill="#A5C3FF"/>
    <circle cx="798" cy="448" r="4" fill="#A5C3FF"/>
    <circle cx="756" cy="462" r="4" fill="#A5C3FF"/>
    <circle cx="770" cy="462" r="4" fill="#A5C3FF"/>
    <circle cx="784" cy="462" r="4" fill="#A5C3FF"/>
    <circle cx="798" cy="462" r="4" fill="#A5C3FF"/>
  </g>
</svg>
